<?xml version="1.0" encoding="UTF-8" standalone="no"?>
<svg width="254.353mm" height="130.175mm"
 viewBox="0 0 721 369"
 xmlns="http://www.w3.org/2000/svg" xmlns:xlink="http://www.w3.org/1999/xlink"  version="1.2" baseProfile="tiny">
<title>Qt Svg Document</title>
<desc>Generated with Qt</desc>
<defs>
</defs>
<g fill="none" stroke="black" stroke-width="1" fill-rule="evenodd" stroke-linecap="square" stroke-linejoin="bevel" >

<g fill="none" stroke="#000000" stroke-opacity="1" stroke-width="1" stroke-linecap="square" stroke-linejoin="bevel" transform="matrix(1,0,0,1,0,0)"
font-family="Droid Sans" font-size="8" font-weight="400" font-style="normal"
>
</g>

<g fill="none" stroke="#000000" stroke-opacity="1" stroke-width="1" stroke-linecap="square" stroke-linejoin="bevel" transform="matrix(1,0,0,1,0,0)"
font-family="Droid Sans" font-size="8" font-weight="400" font-style="normal"
>
</g>

<g fill="none" stroke="#000000" stroke-opacity="1" stroke-width="1" stroke-linecap="square" stroke-linejoin="bevel" transform="matrix(0.994609,0,0,0.994609,1443.18,-78.5741)"
font-family="Droid Sans" font-size="8" font-weight="400" font-style="normal"
>
</g>

<g fill="none" stroke="#ff0000" stroke-opacity="1" stroke-dasharray="4,2" stroke-dashoffset="0" stroke-width="1" stroke-linecap="square" stroke-linejoin="bevel" transform="matrix(0.994609,0,0,0.994609,1443.18,-78.5741)"
font-family="Droid Sans" font-size="8" font-weight="400" font-style="normal"
>
<polyline fill="none" vector-effect="non-scaling-stroke" points="-1100,109 -1100,449 " />
</g>

<g fill="none" stroke="#000000" stroke-opacity="1" stroke-width="1" stroke-linecap="square" stroke-linejoin="bevel" transform="matrix(0.994609,0,0,0.994609,1443.18,-78.5741)"
font-family="Droid Sans" font-size="8" font-weight="400" font-style="normal"
>
</g>

<g fill="none" stroke="#000000" stroke-opacity="1" stroke-width="1" stroke-linecap="square" stroke-linejoin="bevel" transform="matrix(0.994609,0,0,0.994609,1443.18,-78.5741)"
font-family="Droid Sans" font-size="8" font-weight="400" font-style="normal"
>
</g>

<g fill="none" stroke="#ff0000" stroke-opacity="1" stroke-dasharray="4,2" stroke-dashoffset="0" stroke-width="1" stroke-linecap="square" stroke-linejoin="bevel" transform="matrix(0.994609,0,0,0.994609,1443.18,-78.5741)"
font-family="Droid Sans" font-size="8" font-weight="400" font-style="normal"
>
<polyline fill="none" vector-effect="non-scaling-stroke" points="-1420,109 -1420,449 " />
</g>

<g fill="none" stroke="#000000" stroke-opacity="1" stroke-width="1" stroke-linecap="square" stroke-linejoin="bevel" transform="matrix(0.994609,0,0,0.994609,1443.18,-78.5741)"
font-family="Droid Sans" font-size="8" font-weight="400" font-style="normal"
>
</g>

<g fill="none" stroke="#000000" stroke-opacity="1" stroke-width="1" stroke-linecap="square" stroke-linejoin="bevel" transform="matrix(0.994609,0,0,0.994609,1443.18,-78.5741)"
font-family="Droid Sans" font-size="8" font-weight="400" font-style="normal"
>
</g>

<g fill="none" stroke="#ff0000" stroke-opacity="1" stroke-dasharray="4,2" stroke-dashoffset="0" stroke-width="1" stroke-linecap="square" stroke-linejoin="bevel" transform="matrix(0.994609,0,0,0.994609,1443.18,-78.5741)"
font-family="Droid Sans" font-size="8" font-weight="400" font-style="normal"
>
<polyline fill="none" vector-effect="non-scaling-stroke" points="-769,109 -769,263 " />
</g>

<g fill="none" stroke="#000000" stroke-opacity="1" stroke-width="1" stroke-linecap="square" stroke-linejoin="bevel" transform="matrix(0.994609,0,0,0.994609,1443.18,-78.5741)"
font-family="Droid Sans" font-size="8" font-weight="400" font-style="normal"
>
</g>

<g fill="none" stroke="#000000" stroke-opacity="1" stroke-width="1" stroke-linecap="square" stroke-linejoin="bevel" transform="matrix(0.994609,0,0,0.994609,259.593,0.994609)"
font-family="Droid Sans" font-size="8" font-weight="400" font-style="normal"
>
</g>

<g fill="#ffff00" fill-opacity="1" stroke="#ff0000" stroke-opacity="1" stroke-width="1" stroke-linecap="square" stroke-linejoin="bevel" transform="matrix(0.994609,0,0,0.994609,259.593,0.994609)"
font-family="Sans Serif" font-size="9" font-weight="400" font-style="normal"
>
<path vector-effect="non-scaling-stroke" fill-rule="evenodd" d="M0,0 L179,0 L179,29 L0,29 L0,0"/>
</g>

<g fill="#ffff00" fill-opacity="1" stroke="#000000" stroke-opacity="1" stroke-width="1" stroke-linecap="square" stroke-linejoin="bevel" transform="matrix(0.994609,0,0,0.994609,259.593,0.994609)"
font-family="Sans Serif" font-size="9" font-weight="400" font-style="normal"
>
<text fill="#000000" fill-opacity="1" stroke="none" xml:space="preserve" x="41.3594" y="17.0156" font-family="Sans Serif" font-size="9" font-weight="400" font-style="normal"
 > : Restconf-connector</text>
</g>

<g fill="none" stroke="#000000" stroke-opacity="1" stroke-width="1" stroke-linecap="butt" stroke-linejoin="bevel" transform="matrix(0.994609,0,0,0.994609,259.593,0.994609)"
font-family="Sans Serif" font-size="9" font-weight="400" font-style="normal"
>
<polyline fill="none" vector-effect="none" points="41.3594,18.0156 137.359,18.0156 " />
</g>

<g fill="none" stroke="#000000" stroke-opacity="1" stroke-width="1" stroke-linecap="square" stroke-linejoin="bevel" transform="matrix(0.994609,0,0,0.994609,259.593,0.994609)"
font-family="Droid Sans" font-size="8" font-weight="400" font-style="normal"
>
</g>

<g fill="none" stroke="#000000" stroke-opacity="1" stroke-width="1" stroke-linecap="square" stroke-linejoin="bevel" transform="matrix(0.994609,0,0,0.994609,0.994609,0.994609)"
font-family="Droid Sans" font-size="8" font-weight="400" font-style="normal"
>
</g>

<g fill="#ffff00" fill-opacity="1" stroke="#ff0000" stroke-opacity="1" stroke-width="1" stroke-linecap="square" stroke-linejoin="bevel" transform="matrix(0.994609,0,0,0.994609,0.994609,0.994609)"
font-family="Sans Serif" font-size="9" font-weight="400" font-style="normal"
>
<path vector-effect="non-scaling-stroke" fill-rule="evenodd" d="M0,0 L59,0 L59,29 L0,29 L0,0"/>
</g>

<g fill="#ffff00" fill-opacity="1" stroke="#000000" stroke-opacity="1" stroke-width="1" stroke-linecap="square" stroke-linejoin="bevel" transform="matrix(0.994609,0,0,0.994609,0.994609,0.994609)"
font-family="Sans Serif" font-size="9" font-weight="400" font-style="normal"
>
<text fill="#000000" fill-opacity="1" stroke="none" xml:space="preserve" x="15.625" y="17.0156" font-family="Sans Serif" font-size="9" font-weight="400" font-style="normal"
 > : ODL</text>
</g>

<g fill="none" stroke="#000000" stroke-opacity="1" stroke-width="1" stroke-linecap="butt" stroke-linejoin="bevel" transform="matrix(0.994609,0,0,0.994609,0.994609,0.994609)"
font-family="Sans Serif" font-size="9" font-weight="400" font-style="normal"
>
<polyline fill="none" vector-effect="none" points="15.625,18.0156 42.625,18.0156 " />
</g>

<g fill="none" stroke="#000000" stroke-opacity="1" stroke-width="1" stroke-linecap="square" stroke-linejoin="bevel" transform="matrix(0.994609,0,0,0.994609,0.994609,0.994609)"
font-family="Droid Sans" font-size="8" font-weight="400" font-style="normal"
>
</g>

<g fill="none" stroke="#000000" stroke-opacity="1" stroke-width="1" stroke-linecap="square" stroke-linejoin="bevel" transform="matrix(0.994609,0,0,0.994609,638.539,0.994609)"
font-family="Droid Sans" font-size="8" font-weight="400" font-style="normal"
>
</g>

<g fill="#ffff00" fill-opacity="1" stroke="#ff0000" stroke-opacity="1" stroke-width="1" stroke-linecap="square" stroke-linejoin="bevel" transform="matrix(0.994609,0,0,0.994609,638.539,0.994609)"
font-family="Sans Serif" font-size="9" font-weight="400" font-style="normal"
>
<path vector-effect="non-scaling-stroke" fill-rule="evenodd" d="M0,0 L80,0 L80,29 L0,29 L0,0"/>
</g>

<g fill="#ffff00" fill-opacity="1" stroke="#000000" stroke-opacity="1" stroke-width="1" stroke-linecap="square" stroke-linejoin="bevel" transform="matrix(0.994609,0,0,0.994609,638.539,0.994609)"
font-family="Sans Serif" font-size="9" font-weight="400" font-style="normal"
>
<text fill="#000000" fill-opacity="1" stroke="none" xml:space="preserve" x="20.25" y="17.0156" font-family="Sans Serif" font-size="9" font-weight="400" font-style="normal"
 > : Device</text>
</g>

<g fill="none" stroke="#000000" stroke-opacity="1" stroke-width="1" stroke-linecap="butt" stroke-linejoin="bevel" transform="matrix(0.994609,0,0,0.994609,638.539,0.994609)"
font-family="Sans Serif" font-size="9" font-weight="400" font-style="normal"
>
<polyline fill="none" vector-effect="none" points="20.25,18.0156 59.25,18.0156 " />
</g>

<g fill="none" stroke="#000000" stroke-opacity="1" stroke-width="1" stroke-linecap="square" stroke-linejoin="bevel" transform="matrix(0.994609,0,0,0.994609,638.539,0.994609)"
font-family="Droid Sans" font-size="8" font-weight="400" font-style="normal"
>
</g>

<g fill="none" stroke="#000000" stroke-opacity="1" stroke-width="1" stroke-linecap="square" stroke-linejoin="bevel" transform="matrix(0.994609,0,0,0.994609,31.8275,76.5849)"
font-family="Droid Sans" font-size="8" font-weight="400" font-style="normal"
>
</g>

<g fill="none" stroke="#ff0000" stroke-opacity="1" stroke-width="1" stroke-linecap="square" stroke-linejoin="bevel" transform="matrix(0.994609,0,0,0.994609,31.8275,76.5849)"
font-family="Droid Sans" font-size="8" font-weight="400" font-style="normal"
>
<polyline fill="none" vector-effect="non-scaling-stroke" points="317,4 313,1 " />
<polyline fill="none" vector-effect="non-scaling-stroke" points="317,4 313,7 " />
<polyline fill="none" vector-effect="non-scaling-stroke" points="0,4 317,4 " />
</g>

<g fill="none" stroke="#000000" stroke-opacity="1" stroke-width="1" stroke-linecap="square" stroke-linejoin="bevel" transform="matrix(0.994609,0,0,0.994609,31.8275,76.5849)"
font-family="Droid Sans" font-size="8" font-weight="400" font-style="normal"
>
</g>

<g fill="none" stroke="#000000" stroke-opacity="1" stroke-width="1" stroke-linecap="square" stroke-linejoin="bevel" transform="matrix(0.994609,0,0,0.994609,31.8275,340.156)"
font-family="Droid Sans" font-size="8" font-weight="400" font-style="normal"
>
</g>

<g fill="none" stroke="#ff0000" stroke-opacity="1" stroke-width="1" stroke-linecap="square" stroke-linejoin="bevel" transform="matrix(0.994609,0,0,0.994609,31.8275,340.156)"
font-family="Droid Sans" font-size="8" font-weight="400" font-style="normal"
>
<polyline fill="none" vector-effect="non-scaling-stroke" points="0,4 4,1 " />
<polyline fill="none" vector-effect="non-scaling-stroke" points="0,4 4,7 " />
<polyline fill="none" vector-effect="non-scaling-stroke" points="0,4 317,4 " />
</g>

<g fill="none" stroke="#000000" stroke-opacity="1" stroke-width="1" stroke-linecap="square" stroke-linejoin="bevel" transform="matrix(0.994609,0,0,0.994609,31.8275,340.156)"
font-family="Droid Sans" font-size="8" font-weight="400" font-style="normal"
>
</g>

<g fill="none" stroke="#000000" stroke-opacity="1" stroke-width="1" stroke-linecap="square" stroke-linejoin="bevel" transform="matrix(0.994609,0,0,0.994609,349.108,90.5094)"
font-family="Droid Sans" font-size="8" font-weight="400" font-style="normal"
>
</g>

<g fill="#ffffff" fill-opacity="1" stroke="none" transform="matrix(0.994609,0,0,0.994609,349.108,90.5094)"
font-family="Droid Sans" font-size="8" font-weight="400" font-style="normal"
>
<path vector-effect="non-scaling-stroke" fill-rule="evenodd" d="M322,0 L339,0 L339,73 L322,73 L322,0"/>
</g>

<g fill="none" stroke="#ff0000" stroke-opacity="1" stroke-width="1" stroke-linecap="square" stroke-linejoin="bevel" transform="matrix(0.994609,0,0,0.994609,349.108,90.5094)"
font-family="Droid Sans" font-size="8" font-weight="400" font-style="normal"
>
<path vector-effect="non-scaling-stroke" fill-rule="evenodd" d="M322,0 L339,0 L339,73 L322,73 L322,0"/>
<polyline fill="none" vector-effect="non-scaling-stroke" points="0,4 322,4 " />
</g>

<g fill="#ff0000" fill-opacity="1" stroke="#ff0000" stroke-opacity="1" stroke-width="1" stroke-linecap="square" stroke-linejoin="bevel" transform="matrix(0.994609,0,0,0.994609,349.108,90.5094)"
font-family="Droid Sans" font-size="8" font-weight="400" font-style="normal"
>
<path vector-effect="non-scaling-stroke" fill-rule="evenodd" d="M321,4 L317,1 L317,7 L321,4"/>
<polyline fill="none" vector-effect="non-scaling-stroke" points="0,70 4,67 " />
<polyline fill="none" vector-effect="non-scaling-stroke" points="0,70 4,73 " />
</g>

<g fill="#ff0000" fill-opacity="1" stroke="#ff0000" stroke-opacity="1" stroke-dasharray="1,2" stroke-dashoffset="0" stroke-width="1" stroke-linecap="square" stroke-linejoin="bevel" transform="matrix(0.994609,0,0,0.994609,349.108,90.5094)"
font-family="Droid Sans" font-size="8" font-weight="400" font-style="normal"
>
<polyline fill="none" vector-effect="non-scaling-stroke" points="0,70 322,70 " />
</g>

<g fill="none" stroke="#000000" stroke-opacity="1" stroke-width="1" stroke-linecap="square" stroke-linejoin="bevel" transform="matrix(0.994609,0,0,0.994609,349.108,90.5094)"
font-family="Droid Sans" font-size="8" font-weight="400" font-style="normal"
>
</g>

<g fill="none" stroke="#000000" stroke-opacity="1" stroke-width="1" stroke-linecap="square" stroke-linejoin="bevel" transform="matrix(0.994609,0,0,0.994609,347.119,185.992)"
font-family="Droid Sans" font-size="8" font-weight="400" font-style="normal"
>
</g>

<g fill="#ffffff" fill-opacity="1" stroke="none" transform="matrix(0.994609,0,0,0.994609,347.119,185.992)"
font-family="Droid Sans" font-size="8" font-weight="400" font-style="normal"
>
<path vector-effect="non-scaling-stroke" fill-rule="evenodd" d="M0,0 L17,0 L17,41 L0,41 L0,0"/>
</g>

<g fill="none" stroke="#ff0000" stroke-opacity="1" stroke-width="1" stroke-linecap="square" stroke-linejoin="bevel" transform="matrix(0.994609,0,0,0.994609,347.119,185.992)"
font-family="Droid Sans" font-size="8" font-weight="400" font-style="normal"
>
<path vector-effect="non-scaling-stroke" fill-rule="evenodd" d="M0,0 L17,0 L17,41 L0,41 L0,0"/>
<polyline fill="none" vector-effect="non-scaling-stroke" points="17,3 49,3 " />
<polyline fill="none" vector-effect="non-scaling-stroke" points="49,3 49,38 " />
<polyline fill="none" vector-effect="non-scaling-stroke" points="17,38 21,35 " />
<polyline fill="none" vector-effect="non-scaling-stroke" points="17,38 21,41 " />
<polyline fill="none" vector-effect="non-scaling-stroke" points="17,38 49,38 " />
</g>

<g fill="none" stroke="#000000" stroke-opacity="1" stroke-width="1" stroke-linecap="square" stroke-linejoin="bevel" transform="matrix(0.994609,0,0,0.994609,347.119,185.992)"
font-family="Droid Sans" font-size="8" font-weight="400" font-style="normal"
>
</g>

<g fill="none" stroke="#000000" stroke-opacity="1" stroke-width="1" stroke-linecap="square" stroke-linejoin="bevel" transform="matrix(0.994609,0,0,0.994609,347.119,249.647)"
font-family="Droid Sans" font-size="8" font-weight="400" font-style="normal"
>
</g>

<g fill="#ffffff" fill-opacity="1" stroke="none" transform="matrix(0.994609,0,0,0.994609,347.119,249.647)"
font-family="Droid Sans" font-size="8" font-weight="400" font-style="normal"
>
<path vector-effect="non-scaling-stroke" fill-rule="evenodd" d="M0,0 L17,0 L17,28 L0,28 L0,0"/>
</g>

<g fill="none" stroke="#ff0000" stroke-opacity="1" stroke-width="1" stroke-linecap="square" stroke-linejoin="bevel" transform="matrix(0.994609,0,0,0.994609,347.119,249.647)"
font-family="Droid Sans" font-size="8" font-weight="400" font-style="normal"
>
<path vector-effect="non-scaling-stroke" fill-rule="evenodd" d="M0,0 L17,0 L17,28 L0,28 L0,0"/>
<polyline fill="none" vector-effect="non-scaling-stroke" points="17,3 49,3 " />
<polyline fill="none" vector-effect="non-scaling-stroke" points="49,3 49,25 " />
<polyline fill="none" vector-effect="non-scaling-stroke" points="17,25 21,22 " />
<polyline fill="none" vector-effect="non-scaling-stroke" points="17,25 21,28 " />
<polyline fill="none" vector-effect="non-scaling-stroke" points="17,25 49,25 " />
</g>

<g fill="none" stroke="#000000" stroke-opacity="1" stroke-width="1" stroke-linecap="square" stroke-linejoin="bevel" transform="matrix(0.994609,0,0,0.994609,347.119,249.647)"
font-family="Droid Sans" font-size="8" font-weight="400" font-style="normal"
>
</g>

<g fill="none" stroke="#000000" stroke-opacity="1" stroke-width="1" stroke-linecap="square" stroke-linejoin="bevel" transform="matrix(0.994609,0,0,0.994609,22.876,299.377)"
font-family="Droid Sans" font-size="8" font-weight="400" font-style="normal"
>
</g>

<g fill="#ffffff" fill-opacity="1" stroke="none" transform="matrix(0.994609,0,0,0.994609,22.876,299.377)"
font-family="Droid Sans" font-size="8" font-weight="400" font-style="normal"
>
<path vector-effect="non-scaling-stroke" fill-rule="evenodd" d="M0,0 L17,0 L17,20 L0,20 L0,0"/>
</g>

<g fill="none" stroke="#ff0000" stroke-opacity="1" stroke-width="1" stroke-linecap="square" stroke-linejoin="bevel" transform="matrix(0.994609,0,0,0.994609,22.876,299.377)"
font-family="Droid Sans" font-size="8" font-weight="400" font-style="normal"
>
<path vector-effect="non-scaling-stroke" fill-rule="evenodd" d="M0,0 L17,0 L17,20 L0,20 L0,0"/>
<polyline fill="none" vector-effect="non-scaling-stroke" points="18,4 327,4 " />
</g>

<g fill="#ff0000" fill-opacity="1" stroke="#ff0000" stroke-opacity="1" stroke-width="1" stroke-linecap="square" stroke-linejoin="bevel" transform="matrix(0.994609,0,0,0.994609,22.876,299.377)"
font-family="Droid Sans" font-size="8" font-weight="400" font-style="normal"
>
<path vector-effect="non-scaling-stroke" fill-rule="evenodd" d="M17,4 L21,1 L21,7 L17,4"/>
<polyline fill="none" vector-effect="non-scaling-stroke" points="327,17 323,14 " />
<polyline fill="none" vector-effect="non-scaling-stroke" points="327,17 323,20 " />
</g>

<g fill="#ff0000" fill-opacity="1" stroke="#ff0000" stroke-opacity="1" stroke-dasharray="1,2" stroke-dashoffset="0" stroke-width="1" stroke-linecap="square" stroke-linejoin="bevel" transform="matrix(0.994609,0,0,0.994609,22.876,299.377)"
font-family="Droid Sans" font-size="8" font-weight="400" font-style="normal"
>
<polyline fill="none" vector-effect="non-scaling-stroke" points="18,17 327,17 " />
</g>

<g fill="none" stroke="#000000" stroke-opacity="1" stroke-width="1" stroke-linecap="square" stroke-linejoin="bevel" transform="matrix(0.994609,0,0,0.994609,22.876,299.377)"
font-family="Droid Sans" font-size="8" font-weight="400" font-style="normal"
>
</g>

<g fill="none" stroke="#000000" stroke-opacity="1" stroke-width="1" stroke-linecap="square" stroke-linejoin="bevel" transform="matrix(0.994609,0,0,0.994609,285.453,53.7089)"
font-family="Droid Sans" font-size="8" font-weight="400" font-style="normal"
>
</g>

<g fill="none" stroke="#000000" stroke-opacity="1" stroke-width="1" stroke-linecap="square" stroke-linejoin="bevel" transform="matrix(0.994609,0,0,0.994609,285.453,53.7089)"
font-family="Sans Serif" font-size="9" font-weight="400" font-style="normal"
>
<text fill="#000000" fill-opacity="1" stroke="none" xml:space="preserve" x="15.1406" y="14.0156" font-family="Sans Serif" font-size="9" font-weight="400" font-style="normal"
 >create</text>
</g>

<g fill="none" stroke="#000000" stroke-opacity="1" stroke-width="1" stroke-linecap="square" stroke-linejoin="bevel" transform="matrix(0.994609,0,0,0.994609,285.453,53.7089)"
font-family="Droid Sans" font-size="8" font-weight="400" font-style="normal"
>
</g>

<g fill="none" stroke="#000000" stroke-opacity="1" stroke-width="1" stroke-linecap="square" stroke-linejoin="bevel" transform="matrix(0.994609,0,0,0.994609,234.728,317.28)"
font-family="Droid Sans" font-size="8" font-weight="400" font-style="normal"
>
</g>

<g fill="none" stroke="#000000" stroke-opacity="1" stroke-width="1" stroke-linecap="square" stroke-linejoin="bevel" transform="matrix(0.994609,0,0,0.994609,234.728,317.28)"
font-family="Sans Serif" font-size="9" font-weight="400" font-style="normal"
>
<text fill="#000000" fill-opacity="1" stroke="none" xml:space="preserve" x="26.3594" y="14.0156" font-family="Sans Serif" font-size="9" font-weight="400" font-style="normal"
 >update state</text>
</g>

<g fill="none" stroke="#000000" stroke-opacity="1" stroke-width="1" stroke-linecap="square" stroke-linejoin="bevel" transform="matrix(0.994609,0,0,0.994609,234.728,317.28)"
font-family="Droid Sans" font-size="8" font-weight="400" font-style="normal"
>
</g>

<g fill="none" stroke="#000000" stroke-opacity="1" stroke-width="1" stroke-linecap="square" stroke-linejoin="bevel" transform="matrix(0.994609,0,0,0.994609,509.24,67.6334)"
font-family="Droid Sans" font-size="8" font-weight="400" font-style="normal"
>
</g>

<g fill="none" stroke="#000000" stroke-opacity="1" stroke-width="1" stroke-linecap="square" stroke-linejoin="bevel" transform="matrix(0.994609,0,0,0.994609,509.24,67.6334)"
font-family="Sans Serif" font-size="9" font-weight="400" font-style="normal"
>
<text fill="#000000" fill-opacity="1" stroke="none" xml:space="preserve" x="38.2812" y="14.0156" font-family="Sans Serif" font-size="9" font-weight="400" font-style="normal"
 >HTTP GET /modules</text>
</g>

<g fill="none" stroke="#000000" stroke-opacity="1" stroke-width="1" stroke-linecap="square" stroke-linejoin="bevel" transform="matrix(0.994609,0,0,0.994609,509.24,67.6334)"
font-family="Droid Sans" font-size="8" font-weight="400" font-style="normal"
>
</g>

<g fill="none" stroke="#000000" stroke-opacity="1" stroke-width="1" stroke-linecap="square" stroke-linejoin="bevel" transform="matrix(0.994609,0,0,0.994609,352.092,163.116)"
font-family="Droid Sans" font-size="8" font-weight="400" font-style="normal"
>
</g>

<g fill="none" stroke="#000000" stroke-opacity="1" stroke-width="1" stroke-linecap="square" stroke-linejoin="bevel" transform="matrix(0.994609,0,0,0.994609,352.092,163.116)"
font-family="Sans Serif" font-size="9" font-weight="400" font-style="normal"
>
<text fill="#000000" fill-opacity="1" stroke="none" xml:space="preserve" x="42.0156" y="14.0156" font-family="Sans Serif" font-size="9" font-weight="400" font-style="normal"
 >build schema context</text>
</g>

<g fill="none" stroke="#000000" stroke-opacity="1" stroke-width="1" stroke-linecap="square" stroke-linejoin="bevel" transform="matrix(0.994609,0,0,0.994609,352.092,163.116)"
font-family="Droid Sans" font-size="8" font-weight="400" font-style="normal"
>
</g>

<g fill="none" stroke="#000000" stroke-opacity="1" stroke-width="1" stroke-linecap="square" stroke-linejoin="bevel" transform="matrix(0.994609,0,0,0.994609,352.092,226.771)"
font-family="Droid Sans" font-size="8" font-weight="400" font-style="normal"
>
</g>

<g fill="none" stroke="#000000" stroke-opacity="1" stroke-width="1" stroke-linecap="square" stroke-linejoin="bevel" transform="matrix(0.994609,0,0,0.994609,352.092,226.771)"
font-family="Sans Serif" font-size="9" font-weight="400" font-style="normal"
>
<text fill="#000000" fill-opacity="1" stroke="none" xml:space="preserve" x="38.4219" y="14.0156" font-family="Sans Serif" font-size="9" font-weight="400" font-style="normal"
 >create SAL services</text>
</g>

<g fill="none" stroke="#000000" stroke-opacity="1" stroke-width="1" stroke-linecap="square" stroke-linejoin="bevel" transform="matrix(0.994609,0,0,0.994609,352.092,226.771)"
font-family="Droid Sans" font-size="8" font-weight="400" font-style="normal"
>
</g>

<g fill="none" stroke="#000000" stroke-opacity="1" stroke-width="1" stroke-linecap="square" stroke-linejoin="bevel" transform="matrix(0.994609,0,0,0.994609,172.067,276.501)"
font-family="Droid Sans" font-size="8" font-weight="400" font-style="normal"
>
</g>

<g fill="none" stroke="#000000" stroke-opacity="1" stroke-width="1" stroke-linecap="square" stroke-linejoin="bevel" transform="matrix(0.994609,0,0,0.994609,172.067,276.501)"
font-family="Sans Serif" font-size="9" font-weight="400" font-style="normal"
>
<text fill="#000000" fill-opacity="1" stroke="none" xml:space="preserve" x="40.1562" y="14.0156" font-family="Sans Serif" font-size="9" font-weight="400" font-style="normal"
 >register mount point</text>
</g>

<g fill="none" stroke="#000000" stroke-opacity="1" stroke-width="1" stroke-linecap="square" stroke-linejoin="bevel" transform="matrix(0.994609,0,0,0.994609,172.067,276.501)"
font-family="Droid Sans" font-size="8" font-weight="400" font-style="normal"
>
</g>

<g fill="none" stroke="#000000" stroke-opacity="1" stroke-width="1" stroke-linecap="square" stroke-linejoin="bevel" transform="matrix(1,0,0,1,0,0)"
font-family="Droid Sans" font-size="8" font-weight="400" font-style="normal"
>
</g>
</g>
</svg>